# xmcd
#
# Track frame offsets:
#	150
#	12029
#	28373
#	50255
#	63339
#	77792
#	96612
#	108533
#	122735
#	139664
#	152776
#	165163
#	178916
#	192101
#	209406
#	223305
#	233857
#	248773
#
# Disc length: 3549 seconds
#
# Revision: 0
# Processed by: cddbd v1.5.2PL0 Copyright (c) Steve Scherf et al.
# Submitted via: EasyCDDAExtractor 10.0.2.1
#
DISCID=010ddb12
DTITLE=Freddy Quinn - Schön war die Zeit
DYEAR=2005
DGENRE=Blues
TTITLE0=Die Gitarre und das Meer
TTITLE1=Heimweh
TTITLE2=Große Freiheit Nr. 7
TTITLE3=Heimatlos
TTITLE4=La Guitarra Brasiliana
TTITLE5=La Paloma
TTITLE6=Hundert Mann und ein Befehl
TTITLE7=Vergangen, vergessen, vorüber
TTITLE8=Aloa Oe
TTITLE9=Melodie der Nacht
TTITLE10=Du mußt alles vergessen
TTITLE11=Ho Bisogno Di Te
TTITLE12=Spanish Eyes
TTITLE13=Der Junge von St. Pauli
TTITLE14=Irgendwann gibt's ein Wiedersehn
TTITLE15=Guten Abend, gute Nacht (Wiegenlied)
TTITLE16=Junge komm bald wieder
TTITLE17=Happy Birthday
EXTD=
EXTT0=
EXTT1=
EXTT2=
EXTT3=
EXTT4=
EXTT5=
EXTT6=
EXTT7=
EXTT8=
EXTT9=
EXTT10=
EXTT11=
EXTT12=
EXTT13=
EXTT14=
EXTT15=
EXTT16=
EXTT17=
PLAYORDER=
